<?xml version="1.0" encoding="UTF-8" standalone="no"?>
<!-- Created with Inkscape (http://www.inkscape.org/) -->

<svg
   xmlns:dc="http://purl.org/dc/elements/1.1/"
   xmlns:cc="http://creativecommons.org/ns#"
   xmlns:rdf="http://www.w3.org/1999/02/22-rdf-syntax-ns#"
   xmlns:svg="http://www.w3.org/2000/svg"
   xmlns="http://www.w3.org/2000/svg"
   xmlns:sodipodi="http://sodipodi.sourceforge.net/DTD/sodipodi-0.dtd"
   xmlns:inkscape="http://www.inkscape.org/namespaces/inkscape"
   width="613.96515"
   height="806.78619"
   id="svg3164"
   version="1.1"
   inkscape:version="0.48.2 r9819"
   sodipodi:docname="IME.svg">
  <defs
     id="defs3166">
    <inkscape:path-effect
       effect="spiro"
       id="path-effect11392"
       is_visible="true" />
    <inkscape:path-effect
       effect="skeletal"
       id="path-effect11388"
       is_visible="true"
       pattern="M 0,5 10,10 10,0 z"
       copytype="single_stretched"
       prop_scale="1"
       scale_y_rel="false"
       spacing="0"
       normal_offset="0"
       tang_offset="0"
       prop_units="false"
       vertical_pattern="false"
       fuse_tolerance="0" />
    <inkscape:path-effect
       effect="spiro"
       id="path-effect11386"
       is_visible="true" />
    <inkscape:path-effect
       effect="spiro"
       id="path-effect11382"
       is_visible="true" />
    <inkscape:path-effect
       effect="spiro"
       id="path-effect11378"
       is_visible="true" />
    <inkscape:path-effect
       effect="spiro"
       id="path-effect11374"
       is_visible="true" />
  </defs>
  <sodipodi:namedview
     id="base"
     pagecolor="#ffffff"
     bordercolor="#ffffff"
     borderopacity="0.0"
     inkscape:pageopacity="0.0"
     inkscape:pageshadow="0"
     inkscape:zoom="0.37460787"
     inkscape:cx="384.70486"
     inkscape:cy="341.11668"
     inkscape:document-units="px"
     inkscape:current-layer="g5682"
     showgrid="false"
     inkscape:window-width="1276"
     inkscape:window-height="756"
     inkscape:window-x="4"
     inkscape:window-y="0"
     inkscape:window-maximized="1"
     showguides="true"
     inkscape:guide-bbox="true"
     fit-margin-top="0"
     fit-margin-left="0"
     fit-margin-right="0"
     fit-margin-bottom="0">
    <inkscape:grid
       type="xygrid"
       id="grid4015"
       empspacing="5"
       visible="true"
       enabled="true"
       snapvisiblegridlinesonly="true" />
  </sodipodi:namedview>
  <metadata
     id="metadata3169">
    <rdf:RDF>
      <cc:Work
         rdf:about="">
        <dc:format>image/svg+xml</dc:format>
        <dc:type
           rdf:resource="http://purl.org/dc/dcmitype/StillImage" />
        <dc:title></dc:title>
      </cc:Work>
    </rdf:RDF>
  </metadata>
  <g
     inkscape:label="Layer 1"
     inkscape:groupmode="layer"
     id="layer1"
     style="display:inline"
     transform="translate(-865.73126,1657.0314)">
    <flowRoot
       xml:space="preserve"
       id="flowRoot3145"
       style="font-size:40px;font-style:normal;font-weight:normal;line-height:125%;letter-spacing:0px;word-spacing:0px;fill:#000000;fill-opacity:1;stroke:none;font-family:Sans"><flowRegion
         id="flowRegion3147"><rect
           id="rect3149"
           width="580.37946"
           height="79.921104"
           x="774.47357"
           y="-2355.7021" /></flowRegion><flowPara
         id="flowPara3151" /></flowRoot>    <flowRoot
       xml:space="preserve"
       id="flowRoot3161"
       style="font-size:40px;font-style:normal;font-weight:normal;line-height:125%;letter-spacing:0px;word-spacing:0px;fill:#000000;fill-opacity:1;stroke:none;font-family:Sans"><flowRegion
         id="flowRegion3163"><rect
           id="rect3165"
           width="897.20959"
           height="126.54176"
           x="1479.4919"
           y="-1374.7657" /></flowRegion><flowPara
         id="flowPara3167" /></flowRoot>    <path
       style="opacity:0;fill:#ffcc00;fill-opacity:1;stroke:#000000;stroke-width:0.30000001;stroke-miterlimit:4;stroke-opacity:1;stroke-dasharray:none"
       d=""
       id="path6142"
       inkscape:connector-curvature="0" />
    <flowRoot
       xml:space="preserve"
       id="flowRoot4086"
       style="font-size:40px;font-style:normal;font-weight:normal;line-height:125%;letter-spacing:0px;word-spacing:0px;fill:#000000;fill-opacity:1;stroke:none;font-family:Sans"><flowRegion
         id="flowRegion4088"><rect
           id="rect4090"
           width="804.24658"
           height="157.02968"
           x="1523.6122"
           y="-2158.2581" /></flowRegion><flowPara
         id="flowPara4092" /></flowRoot>    <g
       id="g5682"
       style="stroke:none">
      <path
         style="fill:#f7c600;fill-opacity:1;stroke:none"
         d="m 865.73126,-1657.0314 613.92814,0.024 0.037,536.3282 c 0,0 -4.6993,47.8816 -13.1239,65.2831 0,0 -8.1487,34.1128 -42.1229,81.8977 0,0 -39.2224,48.6136 -80.6544,74.3015 0,0 -35.0791,22.9257 -97.7796,40.8796 0,0 -65.4626,17.4015 -139.2117,1.1049 0,0 -75.4063,-9.9437 -151.64114,-80.102 0,0 -54.4141,-54.4141 -68.7772,-100.2655 0,0 -14.2795,-28.5287 -19.5421,-80.2401 z"
         id="path3003"
         inkscape:connector-curvature="0" />
      <path
         inkscape:connector-curvature="0"
         id="path3829"
         d="m 882.19136,-1553.1353 -0.55031,-78.9971 580.60255,-0.5525 0.5505,78.9971 z"
         style="fill:#c52b1a;fill-opacity:1;stroke:none" />
      <path
         inkscape:connector-curvature="0"
         id="path6150"
         d="m 1427.5718,-1015.5966 c -0.1081,-0.3241 -2.0016,-0.556 -6.3249,-0.7746 -26.6523,-1.3479 -53.2754,-8.1416 -79.5075,-20.2887 -44.9463,-20.8131 -88.1974,-56.8442 -127.4899,-106.208 -14.2006,-17.8403 -32.0405,-44.0783 -40.5296,-59.6087 -0.8741,-1.599 -1.7039,-2.9071 -1.8442,-2.9068 -0.1403,2e-4 -0.749,0.8864 -1.3527,1.9694 -32.3753,58.0782 -74.2525,105.6902 -121.3804,138.0024 -39.7474,27.2518 -86.13738,44.8326 -126.56507,47.9653 -7.51839,0.5825 -6.69945,0.8297 -9.01297,-2.72 -14.52265,-22.2823 -25.0814,-57.1757 -30.03702,-99.2633 -0.46966,-3.9887 -0.55864,-13.4042 -0.56151,-59.4142 l -0.003,-54.6743 117.57777,0 117.5778,0 -0.177,1.2191 c -0.8588,5.914 -0.8579,5.9424 0.1882,6.3521 0.5356,0.2097 4.0227,1.4458 7.7491,2.7468 l 6.7753,2.3654 5.7564,-6.3417 5.7564,-6.3417 5.2867,0.044 c 8.1069,0.068 7.0453,-0.8746 9.7271,8.6376 l 2.289,8.1192 1.658,0.2273 c 0.912,0.125 4.7461,0.2273 8.5203,0.2273 6.2121,0 6.8803,-0.062 7.0542,-0.6565 3.1633,-10.8122 4.7351,-16.2597 4.7351,-16.4106 0,-0.1038 3.2495,-0.1808 7.2211,-0.1712 l 7.2212,0.017 4.2886,5.4254 c 3.4184,4.3247 4.4306,5.3804 4.9889,5.2032 0.3853,-0.1223 3.4352,-1.4673 6.7776,-2.9889 l 6.0772,-2.7667 0.1109,-2.4539 0.111,-2.4539 120.9604,0 120.9603,0 -0.01,52.236 c -0.01,54.3404 -0.1026,58.3068 -1.67,70.0544 -2.5661,19.2321 -8.2321,40.2816 -16.5092,61.3328 -3.3739,8.5808 -5.7017,13.8265 -10.4874,23.6329 -4.6034,9.4328 -5.6745,11.3664 -5.9082,10.6654 l 2e-4,0 z"
         style="fill:#ffcc00;fill-opacity:1;stroke:none" />
      <path
         style="fill:none;stroke:none"
         d="m 916.07483,-1016.4542 c 0,0 150.05327,2.2065 255.77377,-187.8253 0,0 98.6892,185.7495 255.7205,188.8745"
         id="path3007"
         inkscape:connector-curvature="0" />
      <path
         sodipodi:nodetypes="cscccccc"
         style="fill:#05a7e9;fill-opacity:1;stroke:none"
         d="m 881.89094,-1126.3724 c 0,0 4.9719,69.882 32.317,108.8281 27.3452,38.94614 93.08396,152.19374 259.91686,152.74614 0,0 162.4137,7.1816 253.5642,-149.15534 0,0 32.5932,-55.7952 34.8028,-114.9049 l 0.5524,-328.6941 -580.82961,1.1996 z"
         id="path3335"
         inkscape:connector-curvature="0" />
      <path
         style="fill:#006ab4;fill-opacity:1;stroke:none"
         d="m 882.41901,-1543.6251 580.37509,-0.7812 0,78.125 -581.15303,0 z"
         id="path3833"
         inkscape:connector-curvature="0" />
      <path
         id="rect5750"
         d="m 1172.7645,-1203.2931 c -92.1894,165.7096 -218.06208,185.2426 -248.78126,187.5313 l -8.40625,0 c 28.01851,40.3832 94.16711,150.4239 258.71871,150.9687 0,0 162.412,7.1807 253.5625,-149.1563 0,0 0.1906,-0.3604 0.25,-0.4687 0.172,-0.3137 0.3964,-0.7092 0.75,-1.3437 l -19.875,0 c -145.652,-17.091 -236.2187,-187.5313 -236.2187,-187.5313 z"
         style="fill:#ffffff;stroke:none"
         inkscape:connector-curvature="0" />
      <g
         transform="translate(-6.58673,-1.3013218)"
         id="g5647"
         style="stroke:none">
        <path
           sodipodi:nodetypes="ccccc"
           inkscape:connector-curvature="0"
           id="path4565"
           d="m 1174.8943,-1106.9543 6.357,0 c 95.2207,12.2159 91.903,125.61635 0,141.96932 l -6.357,0 c 105.2997,-21.20622 80.8633,-142.53462 0,-141.96932 z"
           style="fill:#f7c600;fill-opacity:1;stroke:none" />
        <path
           style="fill:#c52b1a;fill-opacity:1;stroke:none"
           d="m 1170.8909,-1151.3435 3.9963,4.4759 0,5.9943 -6.634,0 -3.996,-3.8363 -0.079,12.8681 4.4758,-3.9966 6.2343,0 0,6.3941 -3.9963,4.2363 12.8682,0.079 -3.8364,-4.2362 0,-6.4741 6.1541,0 4.236,3.9965 0.079,-12.8681 -4.2362,3.8364 -6.234,0 0,-6.3941 3.8364,-3.9963 -12.8682,-0.079 z"
           id="path11487"
           inkscape:connector-curvature="0"
           sodipodi:nodetypes="cccccccccccccccccccccc" />
        <path
           style="fill:#f7c600;fill-opacity:1;stroke:none"
           d="m 1172.591,-958.87354 0,10.9408 c -1.9103,10.0075 -15.736,27.9422 -31.5627,29.0315 l -1.4467,0.4944 0,4.0522 75.2902,0 0,-5.041 0.081,0 c -11.363,3.0811 -30.3142,-12.9423 -33.4601,-28.4369 l -0.3496,-11.041 z"
           id="rect11501"
           inkscape:connector-curvature="0"
           sodipodi:nodetypes="ccccccccccc" />
        <path
           style="fill:#f7c600;fill-opacity:1;stroke:none"
           d="m 1174.8943,-1106.9543 6.357,0 c 55.3644,39.4646 60.8362,88.3254 0,141.96932 l -6.357,0 c 59.2564,-47.32422 49.8762,-99.88872 0,-141.96932 z"
           id="rect11458"
           inkscape:connector-curvature="0"
           sodipodi:nodetypes="ccccc" />
        <path
           sodipodi:nodetypes="ccccc"
           inkscape:connector-curvature="0"
           id="path11461"
           d="m 1174.8943,-1106.9543 6.357,0 c -16.0279,39.9774 -24.6003,85.1018 0,141.96932 l -6.357,0 c -19.2938,-51.02842 -24.7546,-98.00042 0,-141.96932 z"
           style="fill:#f7c600;fill-opacity:1;stroke:none" />
        <path
           style="fill:#f7c600;fill-opacity:1;stroke:none"
           d="m 1174.8943,-1106.9543 6.357,0 c -46.7909,39.9774 -60.1586,85.1018 0,141.96932 l -6.357,0 c -45.055,-45.12492 -66.0202,-88.54382 0,-141.96932 z"
           id="path11463"
           inkscape:connector-curvature="0"
           sodipodi:nodetypes="ccccc" />
        <path
           sodipodi:type="arc"
           style="fill:#f7c600;fill-opacity:1;stroke:none"
           id="path11208"
           sodipodi:cx="-113.90003"
           sodipodi:cy="-1878.8125"
           sodipodi:rx="3.3584676"
           sodipodi:ry="3.3584676"
           d="m -110.54156,-1878.8125 c 0,1.8548 -1.50364,3.3585 -3.35847,3.3585 -1.85483,0 -3.35847,-1.5037 -3.35847,-3.3585 0,-1.8548 1.50364,-3.3585 3.35847,-3.3585 1.85483,0 3.35847,1.5037 3.35847,3.3585 z"
           transform="matrix(2.5576366,0,0,2.5576366,1468.6642,3685.2916)" />
        <rect
           style="fill:#f7c600;fill-opacity:1;stroke:none"
           id="rect11217"
           width="83.774933"
           height="5.8901076"
           x="1137.5776"
           y="-1097.6945" />
        <rect
           style="fill:#f7c600;fill-opacity:1;stroke:none"
           id="rect11222"
           width="137.43584"
           height="5.8901076"
           x="1110.3494"
           y="-1059.6539" />
        <rect
           y="-1042.965"
           x="1108.1407"
           height="5.8901076"
           width="142.09885"
           id="rect11224"
           style="fill:#f7c600;fill-opacity:1;stroke:none" />
        <rect
           style="fill:#f7c600;fill-opacity:1;stroke:none"
           id="rect11226"
           width="142.09885"
           height="5.8901076"
           x="1107.8954"
           y="-1030.2031" />
        <rect
           y="-1011.3055"
           x="1113.5399"
           height="5.8901076"
           width="130.56404"
           id="rect11228"
           style="fill:#f7c600;fill-opacity:1;stroke:none" />
        <rect
           style="fill:#f7c600;fill-opacity:1;stroke:none"
           id="rect11230"
           width="107.98531"
           height="5.8901076"
           x="1125.0748"
           y="-993.63562" />
        <rect
           y="-979.89203"
           x="1141.5846"
           height="5.8901076"
           width="73.314346"
           id="rect11232"
           style="fill:#f7c600;fill-opacity:1;stroke:none" />
        <path
           transform="matrix(3.2293735,0,0,3.2293735,1544.3073,5027.0135)"
           d="m -110.54156,-1878.8125 c 0,1.8548 -1.50364,3.3585 -3.35847,3.3585 -1.85483,0 -3.35847,-1.5037 -3.35847,-3.3585 0,-1.8548 1.50364,-3.3585 3.35847,-3.3585 1.85483,0 3.35847,1.5037 3.35847,3.3585 z"
           sodipodi:ry="3.3584676"
           sodipodi:rx="3.3584676"
           sodipodi:cy="-1878.8125"
           sodipodi:cx="-113.90003"
           id="path11234"
           style="fill:#f7c600;fill-opacity:1;stroke:none"
           sodipodi:type="arc" />
        <rect
           y="-1179.8879"
           x="-1108.7042"
           height="5.8901076"
           width="142.26604"
           id="rect11220"
           style="fill:#f7c600;fill-opacity:1;stroke:none"
           transform="matrix(0,1,-1,0,0,0)" />
        <rect
           y="-1078.8918"
           x="1119.1556"
           height="7.0839267"
           width="120.1864"
           id="rect11288"
           style="fill:#f7c600;fill-opacity:1;stroke:none" />
        <path
           inkscape:connector-curvature="0"
           style="fill:#f7c600;fill-opacity:1;stroke:none"
           d="m 1179.054,-1111.4319 c -40.9337,0 -74.0911,33.1577 -74.0911,74.0914 0,40.93401 33.1574,74.17149 74.0911,74.17149 40.934,0 74.0917,-33.23748 74.0917,-74.17149 0,-40.9337 -33.1577,-74.0914 -74.0917,-74.0914 z m 0,5.1153 c 38.0876,0 68.9764,30.8888 68.9764,68.9761 0,38.08761 -30.8888,68.97642 -68.9764,68.97642 -38.087,0 -68.9758,-30.88881 -68.9758,-68.97642 0,-38.0873 30.8888,-68.9761 68.9758,-68.9761 z"
           id="path11212" />
        <path
           transform="matrix(1.8999586,0,0,1.8999586,1393.5093,2606.462)"
           d="m -110.54156,-1878.8125 c 0,1.8548 -1.50364,3.3585 -3.35847,3.3585 -1.85483,0 -3.35847,-1.5037 -3.35847,-3.3585 0,-1.8548 1.50364,-3.3585 3.35847,-3.3585 1.85483,0 3.35847,1.5037 3.35847,3.3585 z"
           sodipodi:ry="3.3584676"
           sodipodi:rx="3.3584676"
           sodipodi:cy="-1878.8125"
           sodipodi:cx="-113.90003"
           id="path11210"
           style="fill:#f7c600;fill-opacity:1;stroke:none"
           sodipodi:type="arc" />
        <path
           sodipodi:nodetypes="ccccc"
           style="fill:#f7c600;fill-opacity:1;stroke:none"
           d="m 1136.0692,-1097.6947 c -4.2895,2.5412 -9.8456,8.0982 -13.1823,12.3017 56.7022,21.8325 81.7838,62.6842 101.4085,106.35049 3.9868,-3.33025 8.6967,-7.56178 11.924,-11.69508 -24.3368,-63.94611 -60.9309,-88.32421 -100.1502,-106.95711 z"
           id="path11413"
           inkscape:connector-curvature="0" />
        <rect
           style="fill:#000000;fill-opacity:1;stroke:none"
           id="rect11553"
           width="74.901955"
           height="5.1912246"
           x="1139.9592"
           y="-919.61981" />
      </g>
      <path
         style="opacity:0;fill:none;stroke:none"
         d="m 696.1944,-1100.8314 c 162.4371,508.83069 784.9718,546.59934 930.5524,-22.6275"
         id="path9604"
         inkscape:connector-curvature="0"
         sodipodi:nodetypes="cc" />
      <path
         sodipodi:nodetypes="cc"
         inkscape:connector-curvature="0"
         id="path11077"
         d="m 757.69973,-1099.4226 c 115.76798,460.74752 719.91807,467.40342 813.17277,-5.657"
         style="opacity:0;fill:none;stroke:none" />
      <g
         transform="translate(0.59022,0)"
         id="g5247"
         style="stroke:none">
        <path
           inkscape:connector-curvature="0"
           id="path5530"
           d="m 1102.7367,-1344.8377 11.3625,-14.7167 11.1489,14.6805"
           style="fill:#f7c600;fill-opacity:1;stroke:none" />
        <path
           style="fill:#f7c600;fill-opacity:1;stroke:none"
           d="m 1218.5066,-1344.8377 11.3625,-14.7167 11.1489,14.6805"
           id="path4750"
           inkscape:connector-curvature="0" />
        <rect
           style="fill:#f7c600;fill-opacity:1;stroke:none"
           id="rect5255"
           width="22.472277"
           height="60.076454"
           x="1218.5261"
           y="-1344.7858" />
        <rect
           style="fill:#05a7e9;fill-opacity:1;stroke:none"
           id="rect5257"
           width="7.4439416"
           height="6.3529124"
           x="1220.9138"
           y="-1316.9574" />
        <rect
           y="-1316.9574"
           x="1230.605"
           height="6.3529124"
           width="7.4439416"
           id="rect5259"
           style="fill:#05a7e9;fill-opacity:1;stroke:none" />
        <rect
           style="fill:#05a7e9;fill-opacity:1;stroke:none"
           id="rect5263"
           width="7.4439416"
           height="6.3529124"
           x="1230.605"
           y="-1342.7142" />
        <rect
           y="-1342.7142"
           x="1220.9138"
           height="6.3529124"
           width="7.4439416"
           id="rect5265"
           style="fill:#05a7e9;fill-opacity:1;stroke:none" />
        <rect
           style="fill:#05a7e9;fill-opacity:1;stroke:none"
           id="rect5267"
           width="7.4439416"
           height="6.3529124"
           x="1220.9138"
           y="-1305.9778" />
        <rect
           y="-1305.9778"
           x="1230.605"
           height="6.3529124"
           width="7.4439416"
           id="rect5269"
           style="fill:#05a7e9;fill-opacity:1;stroke:none" />
        <rect
           style="fill:#f7c600;fill-opacity:1;stroke:none"
           id="rect5273"
           width="36.517448"
           height="49.166019"
           x="1182.0087"
           y="-1333.8755" />
        <rect
           y="-1327.9369"
           x="1196.5455"
           height="6.3529124"
           width="7.4439416"
           id="rect5275"
           style="fill:#05a7e9;fill-opacity:1;stroke:none" />
        <rect
           style="fill:#05a7e9;fill-opacity:1;stroke:none"
           id="rect5277"
           width="7.4439416"
           height="6.3529124"
           x="1185.3795"
           y="-1327.9369" />
        <rect
           style="fill:#05a7e9;fill-opacity:1;stroke:none"
           id="rect5279"
           width="7.4439416"
           height="6.3529124"
           x="1207.7114"
           y="-1327.9369" />
        <rect
           style="fill:#05a7e9;fill-opacity:1;stroke:none"
           id="rect5281"
           width="7.4439416"
           height="6.3529124"
           x="1196.5455"
           y="-1316.9574" />
        <rect
           y="-1316.9574"
           x="1185.3795"
           height="6.3529124"
           width="7.4439416"
           id="rect5283"
           style="fill:#05a7e9;fill-opacity:1;stroke:none" />
        <rect
           y="-1316.9574"
           x="1207.7114"
           height="6.3529124"
           width="7.4439416"
           id="rect5285"
           style="fill:#05a7e9;fill-opacity:1;stroke:none" />
        <rect
           y="-1305.9778"
           x="1196.5455"
           height="6.3529124"
           width="7.4439416"
           id="rect5287"
           style="fill:#05a7e9;fill-opacity:1;stroke:none" />
        <rect
           style="fill:#05a7e9;fill-opacity:1;stroke:none"
           id="rect5289"
           width="7.4439416"
           height="6.3529124"
           x="1185.3795"
           y="-1305.9778" />
        <rect
           style="fill:#05a7e9;fill-opacity:1;stroke:none"
           id="rect5291"
           width="7.4439416"
           height="6.3529124"
           x="1207.7114"
           y="-1305.9778" />
        <rect
           style="fill:#f7c600;fill-opacity:1;stroke:none"
           id="rect5532"
           width="92.938927"
           height="7.5721784"
           x="1125.2489"
           y="-1341.6161" />
        <path
           inkscape:connector-curvature="0"
           style="fill:#f7c600;fill-opacity:1;stroke:none"
           d="m 1171.8524,-1350.053 -4.8237,8.0313 -4.8566,8.0312 -0.3281,0 0,49.2812 20.0169,0 0,-49.2812 -0.3282,0 -4.8237,-8.0312 -4.8566,-8.0313 z"
           id="rect5299" />
        <g
           id="g5217"
           transform="translate(-0.2175293,0)"
           style="stroke:none">
          <rect
             y="-1323.7836"
             x="1163.7357"
             height="4.9718447"
             width="6.8160176"
             id="rect5304"
             style="fill:#05a7e9;fill-opacity:1;stroke:none" />
          <rect
             style="fill:#05a7e9;fill-opacity:1;stroke:none"
             id="rect5306"
             width="6.8160176"
             height="4.9718447"
             x="1173.4523"
             y="-1323.7836" />
        </g>
        <rect
           style="fill:#05a7e9;fill-opacity:1;stroke:none"
           id="rect5308"
           width="6.8160176"
           height="4.9718447"
           x="1168.3765"
           y="-1333.7273" />
        <rect
           y="-1344.7858"
           x="-1125.2285"
           height="60.076454"
           width="22.472277"
           id="rect5333"
           style="fill:#f7c600;fill-opacity:1;stroke:none"
           transform="scale(-1,1)" />
        <rect
           y="-1316.9574"
           x="-1122.8408"
           height="6.3529124"
           width="7.4439416"
           id="rect5335"
           style="fill:#05a7e9;fill-opacity:1;stroke:none"
           transform="scale(-1,1)" />
        <rect
           style="fill:#05a7e9;fill-opacity:1;stroke:none"
           id="rect5337"
           width="7.4439416"
           height="6.3529124"
           x="-1112.5879"
           y="-1316.9574"
           transform="scale(-1,1)" />
        <rect
           y="-1342.7142"
           x="-1112.5879"
           height="6.3529124"
           width="7.4439416"
           id="rect5339"
           style="fill:#05a7e9;fill-opacity:1;stroke:none"
           transform="scale(-1,1)" />
        <rect
           style="fill:#05a7e9;fill-opacity:1;stroke:none"
           id="rect5341"
           width="7.4439416"
           height="6.3529124"
           x="-1122.8408"
           y="-1342.7142"
           transform="scale(-1,1)" />
        <rect
           y="-1305.9778"
           x="-1122.8408"
           height="6.3529124"
           width="7.4439416"
           id="rect5343"
           style="fill:#05a7e9;fill-opacity:1;stroke:none"
           transform="scale(-1,1)" />
        <rect
           style="fill:#05a7e9;fill-opacity:1;stroke:none"
           id="rect5345"
           width="7.4439416"
           height="6.3529124"
           x="-1112.5879"
           y="-1305.9778"
           transform="scale(-1,1)" />
        <rect
           y="-1333.8755"
           x="-1161.746"
           height="49.166019"
           width="36.517448"
           id="rect5347"
           style="fill:#f7c600;fill-opacity:1;stroke:none"
           transform="scale(-1,1)" />
        <rect
           style="fill:#05a7e9;fill-opacity:1;stroke:none"
           id="rect5349"
           width="7.4439416"
           height="6.3529124"
           x="-1147.2092"
           y="-1327.9369"
           transform="scale(-1,1)" />
        <rect
           y="-1327.9369"
           x="-1158.3751"
           height="6.3529124"
           width="7.4439416"
           id="rect5351"
           style="fill:#05a7e9;fill-opacity:1;stroke:none"
           transform="scale(-1,1)" />
        <rect
           y="-1327.9369"
           x="-1136.0432"
           height="6.3529124"
           width="7.4439416"
           id="rect5353"
           style="fill:#05a7e9;fill-opacity:1;stroke:none"
           transform="scale(-1,1)" />
        <rect
           y="-1316.9574"
           x="-1147.2092"
           height="6.3529124"
           width="7.4439416"
           id="rect5355"
           style="fill:#05a7e9;fill-opacity:1;stroke:none"
           transform="scale(-1,1)" />
        <rect
           style="fill:#05a7e9;fill-opacity:1;stroke:none"
           id="rect5357"
           width="7.4439416"
           height="6.3529124"
           x="-1158.3751"
           y="-1316.9574"
           transform="scale(-1,1)" />
        <rect
           style="fill:#05a7e9;fill-opacity:1;stroke:none"
           id="rect5359"
           width="7.4439416"
           height="6.3529124"
           x="-1136.0432"
           y="-1316.9574"
           transform="scale(-1,1)" />
        <rect
           style="fill:#05a7e9;fill-opacity:1;stroke:none"
           id="rect5361"
           width="7.4439416"
           height="6.3529124"
           x="-1147.2092"
           y="-1305.9778"
           transform="scale(-1,1)" />
        <rect
           y="-1305.9778"
           x="-1158.3751"
           height="6.3529124"
           width="7.4439416"
           id="rect5363"
           style="fill:#05a7e9;fill-opacity:1;stroke:none"
           transform="scale(-1,1)" />
        <rect
           y="-1305.9778"
           x="-1136.0432"
           height="6.3529124"
           width="7.4439416"
           id="rect5365"
           style="fill:#05a7e9;fill-opacity:1;stroke:none"
           transform="scale(-1,1)" />
        <path
           sodipodi:type="star"
           style="fill:#f7c600;fill-opacity:1;stroke:none"
           id="path5538"
           sodipodi:sides="5"
           sodipodi:cx="133.41116"
           sodipodi:cy="-1799.5431"
           sodipodi:r1="26.848188"
           sodipodi:r2="12.323318"
           sodipodi:arg1="1.0471976"
           sodipodi:arg2="1.6755161"
           inkscape:flatsided="false"
           inkscape:rounded="0"
           inkscape:randomized="0"
           d="m 146.83526,-1776.2919 -14.71223,-10.9954 -16.67681,7.6963 5.91092,-17.3899 -12.47302,-13.4823 18.36538,0.2478 8.96806,-16.0288 5.43951,17.5431 18.01558,3.576 -15.00358,10.5944 z"
           inkscape:transform-center-x="0.014625214"
           inkscape:transform-center-y="-3.8122753"
           transform="matrix(1.4840661,-0.15775533,0.15775533,1.4840661,1257.7636,1316.3428)" />
        <path
           style="fill:#f7c600;fill-opacity:1;stroke:none"
           d="m 1148.9361,-1343.7189 33.7274,-46.5407"
           id="path5542"
           inkscape:connector-curvature="0" />
        <path
           style="fill:#f7c600;fill-opacity:1;stroke:none"
           d="m 1171.7586,-1414.4062 0.078,57.6403"
           id="path5544"
           inkscape:connector-curvature="0" />
        <path
           style="fill:#f7c600;fill-opacity:1;stroke:none"
           d="m 1194.9705,-1343.6799 -34.0389,-46.7713"
           id="path5546"
           inkscape:connector-curvature="0" />
        <path
           style="fill:#f7c600;fill-opacity:1;stroke:none"
           d="m 1209.0549,-1387.4739 -54.7478,17.8454"
           id="path5548"
           inkscape:connector-curvature="0" />
        <path
           style="fill:#f7c600;fill-opacity:1;stroke:none"
           d="m 1133.9808,-1387.6891 55.6151,18.1489"
           id="path5550"
           inkscape:connector-curvature="0" />
        <rect
           transform="scale(-1,1)"
           style="fill:#f7c600;fill-opacity:1;stroke:none"
           id="rect3810"
           width="138.242"
           height="6.5353594"
           x="-1240.9984"
           y="-1291.2612" />
        <rect
           y="-1300.1772"
           x="1168.4445"
           height="15.467961"
           width="6.8160176"
           id="rect5310"
           style="fill:#05a7e9;fill-opacity:1;stroke:none" />
      </g>
      <path
         inkscape:connector-curvature="0"
         id="path4778"
         d="m 1165.7332,-1448.3272 -6,17.7188 c -4.4103,0.569 -8.7296,1.4311 -12.9375,2.5625 l -12.3125,-14.0625 -12.4375,5.1562 1.2187,18.6563 c -3.815,2.1999 -7.4665,4.6701 -10.9375,7.3437 l -16.8125,-8.3125 -9.5,9.5313 8.2813,16.7812 c -2.6773,3.472 -5.1411,7.1209 -7.3438,10.9375 l -18.6562,-1.2187 -5.1563,12.4375 14.0625,12.3125 c -1.1347,4.217 -1.9931,8.5482 -2.5625,12.9687 l -17.7187,6 0,13.4688 17.7187,6 c 0.5694,4.4103 1.4304,8.7295 2.5625,12.9375 l -14.0625,12.3125 5.1563,12.4375 18.6562,-1.2188 c 2.2053,3.8223 4.6629,7.4919 7.3438,10.9688 l -8.2813,16.75 9.5,9.5312 16.8125,-8.2812 c 3.4598,2.6663 7.1046,5.1169 10.9063,7.3125 l -1.2188,18.6562 12.4375,5.1563 12.3125,-14.0625 c 4.2197,1.1371 8.5455,2.0227 12.9688,2.5937 l 6,17.6875 13.4687,0 6,-17.6875 c 4.4206,-0.5693 8.7518,-1.4277 12.9688,-2.5625 l 12.2812,14.0313 12.4375,-5.125 -1.2187,-18.6563 c 3.825,-2.2061 7.4897,-4.661 10.9687,-7.3437 l 16.7813,8.2812 9.5,-9.5312 -8.2813,-16.75 c 2.6796,-3.4769 5.1397,-7.1465 7.3438,-10.9688 l 18.6562,1.2188 5.1563,-12.4375 -14.0625,-12.3125 c 1.1314,-4.208 1.9935,-8.5272 2.5625,-12.9375 l 17.7187,-6 0,-13.4688 -17.7187,-6 c -0.5677,-4.4103 -1.4323,-8.7297 -2.5625,-12.9375 l 14.0625,-12.3125 -5.1563,-12.4687 -18.6562,1.2187 c -2.2015,-3.8166 -4.6678,-7.4655 -7.3438,-10.9375 l 8.2813,-16.7812 -9.5,-9.5313 -16.8125,8.2813 c -3.4617,-2.6656 -7.1022,-5.1183 -10.9063,-7.3125 l 1.2188,-18.6563 -12.4375,-5.1562 -12.3125,14.0625 c -4.217,-1.134 -8.5482,-1.9935 -12.9688,-2.5625 l -6,-17.7188 -13.4687,0 z m 6.75,31.75 c 46.2771,0 83.7812,37.5042 83.7812,83.7813 0,46.2771 -37.5041,83.7812 -83.7812,83.7812 -46.2771,0 -83.7813,-37.5041 -83.7813,-83.7812 0,-46.2771 37.5042,-83.7813 83.7813,-83.7813 z"
         style="fill:#f7c600;fill-opacity:1;stroke:none" />
      <g
         id="g5299"
         style="stroke:none">
        <path
           style="fill:#ffffff;fill-opacity:1;stroke:none"
           d="m 943.743,-1609.125 0,25.4375 14.5625,0 0,60.8437 -14.5625,0 0,25.4376 68.3437,0 0,-25.4376 -14.56245,0 0,-60.8437 14.56245,0 0,-25.4375 -68.3437,0 z"
           id="rect4977"
           inkscape:connector-curvature="0" />
        <path
           style="fill:#ffffff;fill-opacity:1;stroke:none"
           d="m 1183.8461,-1524.9375 21.4374,-38.3125 0,40.4062 -14.5624,0 0,25.4376 68.3437,0 0,-25.4376 -14.5625,0 0,-60.8437 14.5625,0 0,-25.4375 -68.3437,0 -18.8438,47 -18.8438,-47 -68.3437,0 0,25.4375 14.5625,0 0,60.8437 -14.5625,0 0,25.4376 68.3437,0 0,-25.4376 -14.5624,0 0,-40.4062 21.4374,38.3125 z"
           id="path4984"
           inkscape:connector-curvature="0"
           sodipodi:nodetypes="cccccccccccccccccccccccccc" />
        <path
           style="fill:#ffffff;fill-opacity:1;stroke:none"
           d="m 1299.7875,-1609.1245 0,25.4375 4.375,0 0,0.031 10.1875,0 0,60.7812 -10.1875,0 0,0.031 -4.375,0 0,25.4376 68.3437,0 56.4376,0 0,-25.4688 0,-12.3438 -19.1876,0 -5.875,12.3438 -45.9374,0 0,-17.0312 26.0624,0 0,-26.7188 -26.0624,0 0,-17.0312 45.9374,0 5.875,12.3437 19.1876,0 0,-12.3437 0,-25.4688 -37.1876,0 -19.25,0 -63.9687,0 -4.375,0 z"
           id="path4994"
           inkscape:connector-curvature="0" />
      </g>
    </g>
  </g>
</svg>
